<svg xmlns="http://www.w3.org/2000/svg" width="429" height="348" viewBox="0 0 429 348"><defs><style>@import url(https://fonts.googleapis.com/css?family=Open+Sans:bold,italic,bolditalic%7CPT+Mono);@font-face{font-family:&apos;PT Mono&apos;;font-weight:700;font-style:normal;src:local(&apos;PT MonoBold&apos;),url(/font/PTMonoBold.woff2) format(&apos;woff2&apos;),url(/font/PTMonoBold.woff) format(&apos;woff&apos;),url(/font/PTMonoBold.ttf) format(&apos;truetype&apos;)}</style></defs><g id="network" fill="none" fill-rule="evenodd" stroke="none" stroke-width="1"><g id="websocket-handshake.svg"><path id="Rectangle-227" fill="#FFF9EB" stroke="#E8C48E" stroke-width="2" d="M2 16h128v64H2z"/><text id="Browser" fill="#8A704D" font-family="OpenSans-Regular, Open Sans" font-size="14" font-weight="normal"><tspan x="31" y="49">Navegador</tspan></text><path id="Rectangle-228" fill="#FFF9EB" stroke="#E8C48E" stroke-width="2" d="M298 16h128v64H298z"/><text id="Server" fill="#8A704D" font-family="OpenSans-Regular, Open Sans" font-size="14" font-weight="normal"><tspan x="333.5" y="49">Servidor</tspan></text><path id="Line" stroke="#979797" stroke-linecap="square" d="M67 81v250.5M363 81v251.5"/><path id="Line" fill="#EE6B47" fill-rule="nonzero" d="M349 133l14 7-14 7v-6H68v-2h281v-6z"/><path id="Line-Copy" fill="#EE6B47" fill-rule="nonzero" d="M83 204v6h281v2H83v6l-14-7 14-7z"/><text id="HTTP-request" fill="#8A704D" font-family="OpenSans-Regular, Open Sans" font-size="14" font-weight="normal"><tspan x="169.515" y="130">Solicitud HTTP</tspan></text><text id="&quot;Hey,-server,-let's" fill="#8A704D" font-family="OpenSans-Regular, Open Sans" font-size="14" font-weight="normal"><tspan x="90.375" y="161">&quot;Hola servidor, hablamos WebSocket?&quot;</tspan></text><text id="HTTP-response-&quot;Okay!" fill="#8A704D" font-family="OpenSans-Regular, Open Sans" font-size="14" font-weight="normal"><tspan x="162.919" y="204">Respuesta HTTP</tspan> <tspan x="205.472" y="226">Ok!</tspan></text><path id="Line-Copy-2" fill="#EE6B47" fill-rule="nonzero" d="M81 272v6h2v2h-2v6l-14-7 14-7zm268 0l14 7-14 7v-14zm-260 6v2h-4v-2h4zm6 0v2h-4v-2h4zm6 0v2h-4v-2h4zm6 0v2h-4v-2h4zm6 0v2h-4v-2h4zm6 0v2h-4v-2h4zm6 0v2h-4v-2h4zm6 0v2h-4v-2h4zm6 0v2h-4v-2h4zm6 0v2h-4v-2h4zm6 0v2h-4v-2h4zm6 0v2h-4v-2h4zm6 0v2h-4v-2h4zm6 0v2h-4v-2h4zm6 0v2h-4v-2h4zm6 0v2h-4v-2h4zm6 0v2h-4v-2h4zm6 0v2h-4v-2h4zm6 0v2h-4v-2h4zm6 0v2h-4v-2h4zm6 0v2h-4v-2h4zm6 0v2h-4v-2h4zm6 0v2h-4v-2h4zm6 0v2h-4v-2h4zm6 0v2h-4v-2h4zm6 0v2h-4v-2h4zm6 0v2h-4v-2h4zm6 0v2h-4v-2h4zm6 0v2h-4v-2h4zm6 0v2h-4v-2h4zm6 0v2h-4v-2h4zm6 0v2h-4v-2h4zm6 0v2h-4v-2h4zm6 0v2h-4v-2h4zm6 0v2h-4v-2h4zm6 0v2h-4v-2h4zm6 0v2h-4v-2h4zm6 0v2h-4v-2h4zm6 0v2h-4v-2h4zm6 0v2h-4v-2h4zm6 0v2h-4v-2h4zm6 0v2h-4v-2h4zm6 0v2h-4v-2h4zm6 0v2h-4v-2h4z"/><text id="WebSocket-protocol" fill="#8A704D" font-family="OpenSans-Regular, Open Sans" font-size="14" font-weight="normal"><tspan x="148.524" y="272">Protocolo WebSocket</tspan></text></g></g></svg>